<svg width="90" height="100" viewBox="0 0 90 100" fill="none" xmlns="http://www.w3.org/2000/svg">
<path d="M89.9913 68.1292V31.8355C89.9913 31.2399 90.0037 30.6443 89.9852 30.0521C89.9728 29.7035 89.6675 29.4133 89.3495 29.441C89.1613 29.4595 88.9732 29.5181 88.7939 29.586C88.0256 29.8913 87.2634 30.2217 86.4889 30.5147C85.9025 30.7368 85.3008 30.9129 84.7116 31.1134C84.3477 31.2399 83.9957 31.4095 83.6225 31.5024C82.7339 31.7214 81.836 31.9099 80.9412 32.1042C80.1297 32.28 79.3213 32.4866 78.5005 32.6073C77.5378 32.7491 76.5656 32.8293 75.5967 32.9126C74.2852 33.0237 72.974 33.1409 71.6563 33.1995C70.9003 33.2334 70.1382 33.1686 69.376 33.1347C68.3609 33.0915 67.3455 33.0422 66.3335 32.9866C66.0158 32.9712 65.7008 32.9373 65.3862 32.9034C64.5284 32.8108 63.6706 32.7183 62.8159 32.6165C62.1155 32.5363 61.415 32.4592 60.7237 32.3482C59.7086 32.1847 58.7025 31.9842 57.6905 31.805C56.7525 31.6384 55.8052 31.5089 54.8731 31.3081C53.3302 30.9781 51.7966 30.5983 50.2569 30.2529C49.0101 29.9722 47.7606 29.7128 46.5139 29.4352C46.1622 29.355 45.8226 29.2193 45.471 29.1422C44.8137 28.9941 44.1471 28.88 43.4867 28.7316C42.8418 28.5867 42.2061 28.3985 41.5614 28.2532C40.364 27.9756 39.1639 27.7193 37.9634 27.4509C37.6334 27.3769 37.3092 27.2782 36.9791 27.2134C35.9486 27.013 34.9147 26.8245 33.8842 26.6333C32.792 26.4297 31.7025 26.2107 30.6042 26.0345C29.7772 25.9019 28.941 25.8341 28.111 25.7261C26.6576 25.5349 25.2103 25.2909 23.7508 25.1521C22.5441 25.0345 21.3282 24.9944 20.1157 25.0006C18.4957 25.0068 16.8758 25.0715 15.2589 25.1425C14.506 25.1764 13.7531 25.2535 13.0063 25.3646C11.6331 25.565 10.2537 25.7686 8.89317 26.0435C7.84724 26.2532 6.81021 26.5465 5.78587 26.855C4.9836 27.0925 4.21218 27.4413 3.40991 27.685C2.44108 27.9811 1.5031 28.33 0.629547 28.8516C0.218988 29.0983 0 29.4191 0 29.9191C0.00925301 36.4853 0.00616867 43.0549 0.00616867 49.6212V69.2461C0.00616867 69.3325 0.00308434 69.4188 0.00616867 69.5052C0.0339277 70.1563 0.478415 70.4709 1.09837 70.2458C2.29577 69.8136 3.48667 69.3571 4.68099 68.9096C5.13165 68.7399 5.56963 68.5302 6.03262 68.4003C6.75161 68.1998 7.48294 68.0484 8.21119 67.8818C9.07823 67.6813 9.94219 67.4373 10.8185 67.2954C11.886 67.1196 12.9631 67.024 14.0368 66.913C15.3453 66.7773 16.6534 66.6261 17.9649 66.5552C18.8196 66.5089 19.6805 66.5737 20.5413 66.62C21.711 66.6786 22.8803 66.7588 24.0499 66.8389C24.6086 66.879 25.1668 66.9346 25.7223 66.9963C26.4691 67.0826 27.2158 67.1813 27.9595 67.2831C28.7741 67.3941 29.5918 67.5052 30.4033 67.6381C31.2364 67.7769 32.0665 67.9497 32.8996 68.095C33.671 68.2276 34.4548 68.3232 35.2262 68.4712C35.8743 68.5977 36.5131 68.7797 37.1577 68.9342C38.2838 69.1995 39.4072 69.4682 40.5364 69.7211C41.7801 70.0018 43.0327 70.2581 44.2763 70.545C45.8254 70.8997 47.3682 71.2886 48.9172 71.6464C50.2689 71.9579 51.6263 72.242 52.9779 72.5412C53.2833 72.6091 53.5828 72.7047 53.8912 72.7602C54.9495 72.9483 56.0112 73.1245 57.0726 73.3003C58.6956 73.5686 60.3156 73.8435 61.9417 74.0902C62.9352 74.2414 63.9383 74.3616 64.938 74.4665C66.0271 74.5806 67.1196 74.7349 68.2118 74.7472C70.3657 74.7719 72.5227 74.7318 74.6762 74.6793C75.4662 74.6608 76.2561 74.5652 77.0368 74.4542C77.9933 74.3154 78.9467 74.1427 79.8912 73.9449C81.3507 73.6365 82.8134 73.3215 84.2576 72.9483C85.0012 72.7602 85.6986 72.399 86.4361 72.1831C87.4605 71.8839 88.4389 71.4949 89.3645 70.9672C89.7562 70.7451 90.0311 70.4641 89.9972 69.949C89.9602 69.3441 89.991 68.7362 89.991 68.1285L89.9913 68.1292ZM12.9638 61.7762C10.9412 63.1713 9.01586 62.5911 6.96135 62.5685C6.81536 63.4236 6.07649 64.4054 5.315 64.2265C5.06619 63.939 5.08264 63.3434 5.03329 62.9157C5.03741 61.5808 5.06791 60.2364 5.12274 58.8872C5.17997 58.1531 5.86778 57.9924 6.36059 57.8437C6.38972 57.8341 6.43838 58.0287 6.4586 58.138C6.67108 59.2837 7.05902 60.2902 7.82188 61.0236C10.0207 63.7594 16.883 58.8252 12.1454 56.9879C9.74924 56.552 6.33934 57.029 5.54358 54.2597C4.81945 50.455 7.72455 48.0588 10.9172 48.068C11.5642 48.0403 12.1201 48.3083 12.6256 48.6811C13.387 49.1345 12.4069 47.7205 14.9196 47.5385C14.7524 49.1911 14.9998 50.8282 14.7466 52.4814C14.8648 53.2754 13.9011 53.332 13.445 53.2706C12.727 52.6041 13.5067 51.0756 12.7363 50.3508C11.7537 48.4823 7.50316 48.6633 7.22077 51.5485C7.0765 52.8775 7.84587 53.9725 9.01038 53.9581C9.59297 54.0753 10.2534 53.9937 10.8517 54.0671C12.2599 54.6442 14.1927 54.2199 14.8298 56.1877C16.0704 58.0078 15.0625 61.0747 12.9638 61.7762ZM14.3117 43.8243C12.982 44.6612 11.9395 45.0005 10.083 45.2483C8.22661 45.4395 4.46406 46.7328 4.01546 46.8028C3.56652 46.8233 3.61656 45.8559 4.12444 45.5807C6.01686 44.9587 5.90719 44.1393 5.94729 42.0405C5.98773 39.9524 5.61075 35.4493 5.82837 33.962C5.86401 33.5758 5.94831 32.3372 5.58333 32.403C5.13679 32.317 3.82458 33.2591 3.80402 32.781C3.7838 32.2971 3.66111 31.8605 4.11211 31.6765C5.93392 30.8739 9.9768 29.9698 12.0313 30.0901C14.6328 30.1915 16.7716 33.3184 13.3494 36.4024C12.752 36.9552 13.9837 37.3558 14.3655 37.6786C16.0296 39.0618 16.4649 42.3318 14.312 43.825L14.3117 43.8243ZM30.2049 63.1785C28.4057 62.8536 24.4543 62.8468 24.5866 62.0627C24.5695 61.5812 24.4955 60.8653 25.1065 60.9369C25.772 60.9993 26.6322 61.038 26.6161 60.0685C26.7254 58.7271 26.8036 56.8529 26.4314 55.9756C26.0592 55.09 23.8471 55.3436 22.663 55.2264C21.7237 55.1764 21.711 56.4283 21.723 57.489C21.7346 58.5551 21.3635 60.4616 22.8303 60.7429C23.8453 61.0613 23.6154 60.9486 23.6596 62.0075C23.6774 62.4338 23.4111 62.4318 23.174 62.4215C21.4286 62.3996 19.6901 62.1586 17.9467 62.1984C17.2785 62.2683 17.5495 61.4253 17.483 60.9677C17.5742 59.857 19.5081 61.0651 19.675 59.9201C19.9598 56.6881 19.8717 53.3954 19.5972 50.1551C19.5472 49.285 18.797 49.2325 18.1681 49.1057C17.4567 48.9686 17.3199 47.8079 18.0554 47.6568C19.4731 48.0636 23.4536 46.8782 23.4889 48.0468C23.515 48.8843 23.0897 48.7952 22.5259 48.8323C22.0537 48.8634 21.774 49.1554 21.8021 49.7983C21.8302 50.4447 21.2034 53.8254 22.6987 53.8196C24.1939 53.8114 26.4454 54.5599 26.6055 53.3063C26.4417 51.7774 27.3673 49.0153 25.1295 49.0852C24.8238 49.0612 24.747 48.9172 24.7473 48.6033C24.748 47.8148 24.8101 47.7462 25.5291 47.8086C27.1079 47.9436 28.6991 48.1479 30.268 48.2808C30.4321 48.3185 30.6631 48.4806 30.7323 48.6407C31.024 49.2051 30.7769 50.1201 30.0565 49.8634C28.514 49.3206 28.9205 51.5859 28.892 51.5794C28.8937 54.6462 28.8886 57.7121 28.8934 60.7793C28.8139 61.7381 29.8612 61.6357 30.44 61.7405C30.7292 61.7566 30.9047 61.952 30.8975 62.209C30.8893 62.3944 31.0538 63.3177 30.2049 63.1789V63.1785ZM28.5298 44.9789C27.9064 44.7496 25.9009 45.0221 25.8858 44.0762C25.9232 43.7904 26.087 43.6471 26.3707 43.6646C26.856 43.7547 27.464 43.4792 27.1785 42.8236C26.6603 41.4405 26.0236 39.6276 24.4605 39.8274C22.6952 39.7369 21.3278 39.1416 20.9694 41.6043C20.5626 43.7777 22.3738 42.6889 22.8213 43.6269C22.8707 44.8315 19.2247 44.3144 18.3525 44.5063C17.9954 44.5258 17.8463 44.3733 17.848 43.9693C17.8518 43.1547 17.8494 43.0796 18.5581 42.863C19.7905 42.2023 19.8583 40.3277 20.5016 39.1241C21.1829 36.5874 22.5352 34.8002 23.1805 32.2796C23.7302 29.6802 18.5639 32.9277 19.64 29.477C19.6548 29.4287 19.7973 29.3828 19.8806 29.3848C21.0945 29.5716 27.4177 29.9667 29.1226 30.4571C29.8111 30.6203 29.5695 31.8835 29.1926 31.9397C28.5404 32.0339 27.0342 31.6604 26.4944 31.7334C24.7035 32.4082 27.8906 38.0525 28.4071 39.6999C29.1936 41.0745 29.2494 43.5258 30.7885 44.1067C30.9753 44.1609 31.1323 44.2129 31.1158 44.4703C31.3211 45.9878 29.3358 44.9193 28.5298 44.9792V44.9789ZM44.6321 59.0733C44.6098 63.6741 41.6656 65.4627 38.6409 64.8273C36.0477 64.2687 32.5713 60.8337 32.5713 56.5931C32.5713 55.1236 33.2522 48.8597 38.3894 49.9738C42.8462 50.9731 44.7109 55.3392 44.6321 59.0736V59.0733ZM44.789 47.3415C44.8171 47.9844 44.4868 48.103 44.0409 48.0266C40.7479 47.446 37.4517 46.9018 34.1601 45.9419C33.6666 45.8836 33.7865 45.252 33.8054 44.898C33.8369 44.7777 33.9561 44.6273 34.0572 44.628C34.9054 44.6338 35.2817 44.3404 35.3914 43.4353C35.7211 40.3411 35.9387 37.1505 35.5597 33.9065C35.4233 32.7406 33.7317 33.3026 33.7978 32.5339C33.8917 32.1299 33.8269 31.4671 34.3784 31.6052C36.0573 31.9136 37.7369 32.3036 39.4158 32.6659C39.9559 32.742 39.7372 33.1388 39.7098 33.5219C39.6913 34.1426 39.6108 34.2029 39.0713 33.9891C37.3054 33.5165 37.6861 37.6947 37.6998 39.3037C37.7136 40.9158 36.8331 45.0618 38.5264 45.728C40.4288 46.3535 43.1478 46.5663 43.5892 44.1982C43.7201 43.7955 43.5981 43.0663 43.9833 42.8956C45.3449 42.9871 44.5608 46.3322 44.7897 47.3411L44.789 47.3415ZM55.3882 67.9431C54.4773 66.5038 54.542 61.7741 52.8984 61.3965C49.8919 60.0729 50.8556 62.4318 50.9402 64.6748C51.0098 65.2005 50.7226 66.1069 51.458 66.231C52.2164 66.4976 53.5794 66.1566 53.3224 67.5932C53.2473 68.2471 50.7521 67.4894 50.8638 67.5185C50.9755 67.5545 48.3329 66.694 47.1674 66.547C46.4779 66.5151 46.2054 65.3715 46.8819 65.3708C47.3912 65.4616 48.226 65.8276 48.2507 65.0195C48.4676 62.1021 48.2483 59.1038 48.3237 56.1665C48.3435 55.3954 48.5286 53.6291 47.7082 53.4087C47.289 53.3056 46.5036 53.5527 46.5625 52.7836C46.4182 51.7641 47.0389 52.0047 47.6979 52.2847C49.896 52.9385 52.0893 53.2463 54.283 53.8405C55.3847 54.1377 55.9012 54.6168 56.6435 55.1596C58.6761 56.9256 57.7737 60.9695 55.3656 60.7909C54.9392 60.71 54.394 61.1076 54.9159 61.5668C56.5441 62.7049 56.2168 64.8667 56.8591 66.5456C56.9917 67.0322 57.3532 66.9863 57.638 66.9935C58.4019 66.8838 57.9221 65.5195 58.0548 64.8801C58.0616 64.3814 58.1469 64.3321 58.5856 64.5384C58.8108 64.6381 59.173 64.7711 59.2203 65.0596C59.5195 67.7427 57.8776 70.8894 55.3878 67.9435L55.3882 67.9431ZM58.8512 42.2417C58.4715 42.3469 57.9194 42.3113 57.916 41.6807C57.8131 40.6934 57.648 39.669 56.9146 38.9182C56.1884 38.3613 54.2631 36.1423 54.2 38.0652C54.3484 41.2808 53.9896 44.3562 54.1089 47.5718C53.9906 48.9183 55.6939 48.9388 56.5249 49.3144C57.0075 49.553 56.6798 50.4724 56.32 50.5081C54.5989 50.3789 52.8282 49.7445 51.1009 49.5687C50.2253 49.2099 48.6828 49.4824 48.8967 47.9227C48.9234 47.8185 49.1294 47.7531 49.2613 47.7702C49.9642 47.9525 50.6828 48.0896 51.3042 47.8086C51.9861 47.3422 51.7134 46.0704 51.8299 45.2222C51.64 42.5618 51.9992 39.9973 51.9162 37.3489C51.8645 36.0028 49.5924 37.2461 48.9817 37.2739C48.2493 37.7663 48.2551 38.9531 47.8017 39.7136C47.8 40.118 47.7106 40.3764 47.251 40.1988C45.8151 39.6992 46.8655 36.2492 46.5978 34.9473C46.6016 34.1957 46.7253 34.1344 47.3939 34.2361C49.3487 34.3695 51.2829 34.7738 53.247 35.3606C55.0602 35.6878 56.8683 35.7238 58.6884 36.1597C59.6932 36.509 58.9873 39.0775 59.1867 40.0138C59.2265 40.021 59.4855 41.8637 58.8515 42.241L58.8512 42.2417ZM62.7755 37.3513C62.8831 36.8369 63.4931 36.9881 63.8776 36.9987C66.402 37.3664 68.9942 37.1519 71.4877 37.4538C71.7821 37.5734 72.1025 38.5069 71.937 38.7951C71.1289 39.413 68.851 38.3668 68.5932 39.6529C68.7653 43.2184 68.317 46.8346 68.5202 50.3847C68.8701 51.3241 71.6334 50.3991 71.8811 51.1825C72.1066 53.2165 69.609 52.1493 68.5432 52.4231C66.9956 52.442 65.4496 52.5907 63.8979 52.3045C63.2625 52.1582 63.379 51.3648 63.3375 50.845C66.8078 50.0471 65.7474 51.6774 66.0942 46.3946C66.0812 46.3929 66.0682 46.3912 66.0555 46.3895C66.1028 44.2853 65.8811 42.1639 66.0569 40.0734C66.0925 39.3483 65.9068 39.1279 65.1669 39.0021C63.9698 38.6176 62.6127 39.3061 62.7762 37.3506L62.7755 37.3513ZM73.3496 61.5966C72.9699 61.7813 72.4178 61.8564 72.4144 61.2265C72.3116 60.259 72.1464 59.2696 71.413 58.6586C70.6872 58.2456 68.7615 56.3549 68.6985 58.2833C68.8468 61.4749 68.488 64.609 68.6073 67.8047C68.4891 69.1735 70.1923 68.9116 71.0234 69.1282C71.5059 69.2766 71.1783 70.2578 70.8184 70.3595C69.0974 70.5463 67.3266 70.1916 65.5994 70.2434C64.7238 70.0038 63.1816 70.449 63.3951 68.864C63.4218 68.7567 63.6278 68.6686 63.7597 68.6707C64.4626 68.7732 65.1809 68.8201 65.8023 68.4562C66.4842 67.8976 66.2115 66.6621 66.328 65.7982C66.1381 63.1641 66.4973 60.5496 66.4143 57.9129C66.3626 56.5811 64.0905 58.1195 63.4798 58.2062C62.7474 58.7789 62.7532 59.9633 62.2998 60.77C62.2981 61.1741 62.2087 61.4427 61.7491 61.3084C60.3135 60.9386 61.3632 57.3933 61.0959 56.1161C61.0997 55.3635 61.2234 55.2936 61.892 55.332C63.8471 55.2789 65.781 55.443 67.7451 55.7299C69.5586 55.7792 71.3664 55.4903 73.1865 55.5496C74.1913 55.6887 73.4854 58.4047 73.6848 59.2995C73.7246 59.2981 73.9836 61.0867 73.3496 61.5973V61.5966ZM84.3772 36.7105C84.4557 35.8715 85.2679 34.9222 85.9409 35.1799C86.0852 36.7626 86.0595 38.5008 86.1678 40.1262C86.2477 40.8517 85.5204 41.2592 85.25 40.7026C85.0156 40.2009 84.736 39.718 84.5934 39.1557C84.0605 37.5213 81.9457 37.2029 80.3915 37.9199C77.0238 39.8325 77.2397 44.8785 78.2435 47.8771C79.0389 50.493 82.2689 50.7651 84.0773 48.2219C85.1685 47.2301 84.712 45.2575 85.8271 44.728C87.0797 44.9498 85.0328 49.4296 83.9892 50.1078C82.2973 52.0132 79.8374 52.0472 78.1201 51.1297C76.083 49.7462 75.2438 47.068 75.0402 44.4011C74.9357 39.2835 80.3662 34.6203 84.3775 36.7108L84.3772 36.7105ZM86.0468 65.1974C85.6654 67.0799 84.089 68.0298 82.6897 68.8359C81.0238 69.8335 79.543 69.0353 77.9103 68.9901C77.7314 69.803 77.0193 70.7218 76.2469 70.3763C75.9953 70.0401 76.0131 69.4445 75.9638 69.0072C75.9676 67.6727 75.9984 66.3355 76.0529 64.9979C76.1091 64.2783 76.7966 64.2567 77.2894 64.1792C77.3188 64.1741 77.3685 64.3752 77.3887 64.487C77.5992 65.6638 77.9888 66.7317 78.751 67.5309C80.9491 70.7434 87.8114 64.452 83.0773 63.4023C80.6808 63.3588 77.2715 63.441 76.4741 60.4561C75.7496 56.4821 78.654 54.8381 81.8456 54.6013C82.4923 54.5311 83.0482 54.7316 83.5543 55.029C84.0317 55.2295 83.8271 54.8316 84.2202 54.3398C84.456 54.0509 85.6839 53.5434 85.7278 53.8978C85.7716 54.2542 86.4108 58.7803 85.0441 59.3039C83.2452 60.2446 84.6198 57.3125 83.6513 56.6456C81.9728 54.4639 76.3928 56.1771 78.6173 59.8779C79.3634 60.7584 80.5396 60.5685 81.5814 60.599C82.2 60.7409 82.799 60.8965 83.4851 60.7936C85.4762 60.6346 86.8854 62.8725 86.0465 65.1967L86.0468 65.1974Z" fill="#FDFCF5"/>
<path d="M38.3504 51.3007C35.934 50.7709 35.1211 53.6948 35.1211 56.6962C35.1211 59.1877 35.7256 62.6363 38.6448 63.2785C41.5639 63.9327 42.0776 61.1281 42.0982 58.2171C42.2452 54.6215 40.9388 51.8757 38.3504 51.301V51.3007Z" fill="#FDFCF5"/>
<path d="M24.0647 34.0003C23.1095 35.0051 22.9317 36.6456 22.4543 37.9901C22.2905 38.7481 23.2432 38.5826 23.6534 38.6995C23.6534 38.67 25.6205 38.988 25.4327 38.1864C25.2449 37.3783 24.8066 35.2124 24.065 34.0003H24.0647Z" fill="#FDFCF5"/>
<path d="M55.2395 57.6251C55.0877 55.3104 52.8766 54.6692 51.232 54.5239C50.2141 54.5743 50.6994 56.2412 50.5435 57.0688C50.6103 58.0024 50.1415 59.2957 51.3752 59.4787C52.7621 59.5857 55.4006 59.7868 55.2395 57.6247V57.6251Z" fill="#FDFCF5"/>
<path d="M8.79753 38.3036C7.57476 38.5709 8.07751 40.7848 7.94694 41.5459C7.86777 43.8759 7.6762 44.5141 10.1817 44.0367C13.2846 43.5271 14.0813 40.8667 12.801 39.0448C11.9693 37.4999 10.0206 38.0325 8.79787 38.3036H8.79753Z" fill="#FDFCF5"/>
<path d="M7.99049 35.1364C8.12792 35.7577 7.76671 36.9504 8.72799 36.999C11.07 37.1121 14.0149 34.9983 12.3048 32.28C11.5968 31.1539 9.80271 31.745 8.74444 31.828C7.48706 32.1395 8.0957 34.2934 7.99049 35.1368V35.1364Z" fill="#FDFCF5"/>
</svg>
